<svg width="192" height="192" viewBox="0 0 192 192" xmlns="http://www.w3.org/2000/svg">
  <!-- Background -->
  <rect width="192" height="192" fill="#3DB87A" rx="42"/>
  
  <!-- Dark brown outline/shadow -->
  <ellipse cx="98" cy="102" rx="56" ry="36" fill="#3D2817" transform="rotate(-20 98 102)"/>
  
  <!-- Main orange bread body -->
  <ellipse cx="95" cy="98" rx="54" ry="34" fill="#E8A557" transform="rotate(-20 95 98)"/>
  
  <!-- Darker orange shading on right side -->
  <path d="M 95 98 Q 125 85, 140 95 Q 142 105, 125 115 Q 105 118, 95 110 Z" 
        fill="#D18E43" transform="rotate(-20 95 98)"/>
  
  <!-- Light cream highlight on bottom left -->
  <ellipse cx="58" cy="108" rx="20" ry="13" fill="#F5DDB0" opacity="0.9" transform="rotate(-20 58 108)"/>
  
  <!-- Three curved score marks (dark brown) -->
  <g stroke="#3D2817" stroke-width="6" fill="none" stroke-linecap="round" stroke-linejoin="round">
    <path d="M 48 72 Q 58 68, 68 74"/>
    <path d="M 62 85 Q 75 80, 88 88"/>
    <path d="M 78 98 Q 93 92, 108 101"/>
  </g>
</svg>
